# xmcd
#
# Track frame offsets: 
#        150
#        25002
#        39070
#        62497
#        82222
#        106462
#        121357
#        141527
#        165722
#        185042
#        200317
#        214095
#        236402
#        256092
#        273470
#        302222
#
# Disc length: 4270 seconds
#
# Revision: 3
# Processed by: cddbd v1.5.2PL0 Copyright (c) Steve Scherf et al.
# Submitted via: ExactAudioCopy v1.0b1
#
DISCID=e210ac10
DTITLE=Cephas and Wiggins - Bluesmen
DYEAR=1993
DGENRE=Blues
TTITLE0=Big Boss Man
TTITLE1=Mama Let Me Lay It On You
TTITLE2=Prison Bound Blues
TTITLE3=Jesus Is Mine
TTITLE4=The Little Red Rooster
TTITLE5=Blakes Rag
TTITLE6=A Shanty In Old Shanty Town
TTITLE7=Broke Down Engine
TTITLE8=Good Morning Little School Girl
TTITLE9=St. Louis Blues
TTITLE10=The Things I used to Do
TTITLE11=Sick Bed Blues
TTITLE12=Burn Your Bridges
TTITLE13=Goin To The River
TTITLE14=Prison Blues
TTITLE15=Keep Your Hands Off Her
EXTD=
EXTT0=
EXTT1=
EXTT2=
EXTT3=
EXTT4=
EXTT5=
EXTT6=
EXTT7=
EXTT8=
EXTT9=
EXTT10=
EXTT11=
EXTT12=
EXTT13=
EXTT14=
EXTT15=
PLAYORDER=
